<?xml version="1.0" encoding="utf-8"?>
<svg version="1.1" id="Layer_1" xmlns="http://www.w3.org/2000/svg" xmlns:xlink="http://www.w3.org/1999/xlink" x="0px" y="0px"
	 width="272px" height="60px" viewBox="0 0 272 60" style="enable-background:new 0 0 272 60;" xml:space="preserve">
<style type="text/css">
	.st0{enable-background:new    ;}
	.st1{fill:#FFFFFF;}
	.st2{fill:none;stroke:#FFFFFF;stroke-width:2;}
</style>
<g id="Group-3" transform="translate(739.000000, 3743.000000)">
	<g class="st0">
		<path class="st1" d="M-725.1-3731h12.1c5,0,8.6,3.1,8.6,7.5c0,3.2-2.3,5.8-5.6,6.3c3.9,0.4,6.5,3.1,6.5,6.8c0,4.4-3.5,7.5-8.6,7.5
			h-13V-3731z M-713.4-3718.6c3.1,0,5.2-2,5.2-4.7s-2.2-4.7-5.2-4.7h-7.9v9.4H-713.4z M-712.6-3706c3.1,0,5.2-2,5.2-4.8
			c0-2.9-2.1-4.8-5.2-4.8h-8.7v9.7H-712.6z"/>
		<path class="st1" d="M-680.6-3712h-15.6c0,3.8,2.6,6.8,6.3,6.8c2.8,0,5.2-1.7,5.6-4.1l3.3,0.3c-0.4,3.8-4.1,6.7-8.9,6.7
			c-5.8,0-10-4.4-10-10.6c0-6,4-10.6,9.9-10.6c5.5,0,9.5,4.2,9.5,10.3C-680.5-3712.9-680.5-3712.4-680.6-3712z M-684.2-3714.4
			c0-3.6-2.4-6.4-5.9-6.4c-3.4,0-5.9,2.6-6.1,6.4H-684.2z"/>
		<path class="st1" d="M-677.4-3705.4l11.6-14.8h-11.6v-2.7h16.2v2.3l-11.6,14.8h11.7v2.8h-16.2V-3705.4z"/>
		<path class="st1" d="M-658.2-3729.1c0-1.5,1.2-2.7,2.7-2.7s2.7,1.2,2.7,2.7c0,1.5-1.2,2.7-2.7,2.7S-658.2-3727.6-658.2-3729.1z
			 M-657.4-3723h3.7v20h-3.7V-3723z"/>
		<path class="st1" d="M-630.4-3712h-15.6c0,3.8,2.6,6.8,6.3,6.8c2.8,0,5.2-1.7,5.6-4.1l3.3,0.3c-0.4,3.8-4.1,6.7-8.9,6.7
			c-5.8,0-10-4.4-10-10.6c0-6,4-10.6,9.9-10.6c5.5,0,9.5,4.2,9.5,10.3C-630.3-3712.9-630.3-3712.4-630.4-3712z M-633.9-3714.4
			c0-3.6-2.4-6.4-5.9-6.4c-3.4,0-5.9,2.6-6.1,6.4H-633.9z"/>
		<path class="st1" d="M-608.8-3715.2v12.2h-3.7v-11.7c0-3.7-1.7-5.7-4.8-5.7c-3.4,0-5.3,2.5-5.3,7.2v10.3h-3.7v-28h3.7v12.7
			c0.8-3.3,3.2-5.2,6.5-5.2C-611.6-3723.5-608.8-3720.4-608.8-3715.2z"/>
		<path class="st1" d="M-587.4-3723v20h-3.7l0.1-3.8c-1,2.8-3.2,4.3-6.4,4.3c-4.4,0-7-3.1-7-8.2v-12.2h3.7v11.7
			c0,3.7,1.6,5.7,4.5,5.7c3.3,0,5.1-2.5,5.1-7.2v-10.3H-587.4z"/>
		<path class="st1" d="M-565.2-3715.2v12.2h-3.7v-11.7c0-3.7-1.7-5.7-4.8-5.7c-3.4,0-5.3,2.5-5.3,7.2v10.3h-3.7v-20h3.7l-0.1,5.2
			c0.7-3.6,3.1-5.7,6.6-5.7C-568-3723.5-565.2-3720.4-565.2-3715.2z"/>
		<path class="st1" d="M-560.6-3702.5l3.7-0.1c0.2,2.9,2.7,4.8,6.2,4.8c4,0,6.2-2.5,6.2-6.8v-3.4c-1,2.5-3.7,4.4-7,4.4
			c-5.4,0-9.7-4.1-9.7-10c0-5.6,4-10,9.8-10c3.2,0,6.2,1.9,7.2,4.6v-4h3.5v17.9c0,6.4-3.7,10.2-9.8,10.2
			C-556.5-3694.8-560.4-3697.8-560.6-3702.5z M-544.2-3713.6c0-4-2.7-6.9-6.6-6.9c-3.8,0-6.6,2.8-6.6,6.9c0,3.9,2.7,6.9,6.6,6.9
			C-547.1-3706.6-544.2-3709.5-544.2-3713.6z"/>
		<path class="st1" d="M-536.9-3709.4l3.4-0.1c0.2,2.7,2.1,4.5,5,4.5c2.5,0,4.2-1.2,4.2-3c0-1.6-1.2-2.4-3.6-3.1l-2.3-0.6
			c-3.8-0.9-5.5-2.6-5.5-5.7c0-3.7,3.1-6.2,7.4-6.2c4.6,0,8,2.9,8.1,7l-3.4,0.1c-0.1-2.6-2.1-4.5-4.8-4.5c-2.2,0-3.9,1.3-3.9,3.2
			c0,1.5,0.9,2.4,2.7,2.9l2.3,0.6c4.3,1,6.5,2.9,6.5,5.8c0,3.6-3.2,6.1-7.8,6.1C-533.4-3702.3-536.8-3705.2-536.9-3709.4z"/>
		<path class="st1" d="M-510.3-3712.8v3.3c0,2.3,1.1,3.5,2.9,3.5c0.7,0,1.3-0.1,1.9-0.3l0.1,3.1c-0.9,0.2-1.8,0.4-2.7,0.4
			c-3.4,0-5.8-2.2-5.8-6.5v-3.5v-7.2h-3.7v-2.9h3.7v-4.8h3.7v4.8h4.9v2.9h-4.9V-3712.8z"/>
		<path class="st1" d="M-501.8-3708c0-3.6,3.2-5.9,9-6.4l4-0.4v-0.9c0-2.8-1.9-4.8-4.7-4.8c-2.8,0-4.8,1.8-5,4.5l-3.5-0.1
			c0.2-4.4,3.6-7.4,8.5-7.4c5,0,8.4,3.3,8.4,8v6.8c0,2.2,0.2,4.3,0.5,5.7h-3.6c-0.2-0.8-0.4-2.2-0.4-4.7h-0.1
			c-0.6,3-3.2,5.1-6.8,5.1C-499.4-3702.6-501.8-3704.8-501.8-3708z M-488.8-3711.1v-1.7l-3.6,0.3c-3.7,0.3-5.7,1.8-5.7,4.1
			c0,2,1.6,3.2,4,3.2C-490.9-3705.1-488.8-3707.6-488.8-3711.1z"/>
		<path class="st1" d="M-474-3712.8v3.3c0,2.3,1.1,3.5,2.9,3.5c0.7,0,1.3-0.1,1.9-0.3l0.1,3.1c-0.9,0.2-1.8,0.4-2.7,0.4
			c-3.4,0-5.8-2.2-5.8-6.5v-3.5v-7.2h-3.7v-2.9h3.7v-4.8h3.7v4.8h4.9v2.9h-4.9V-3712.8z"/>
	</g>
	<path id="Path" class="st2" d="M-717-3701c47-6,30.5-4.4,115.8-5.7c15.3-0.2,74.9-1,104.8,2.2c2.1,0.2,8.3,1.3,6.2,1.4
		c-58.3,2.5-116.6,4-174.9,5.8c-8.3,0.3,16.5-1,24.8-1.1c7.2-0.1,14.5,0.6,21.7,0.6c20.6-0.1,41.2-0.4,61.8-0.8
		c16.5-0.4,66.1-2.3,49.6-1.7c-19.4,0.7-38.7,1.8-58.1,2c-7.9,0.1-15.8-0.3-23.6-1.2c-28.8-3.2-6.7-7.1,3.8-8.5
		c9.1-1.2,18.2-2.3,27.3-2.8c28.9-1.5,36.2-2.4,61.7,3.6c8.8,2.1,29.4-0.9,26.2,7.6c-3.3,8.5-43.1-1.6-49.7-3.4
		c-4.1-1.1-16.2-3.1-12.1-4.3c10.1-3,21-1.7,31.4-1.4c1.7,0.1,38.7,4.8,9.7,6.3c-12.8,0.6-25.8,2.6-38.5,1.3
		c-56.2-5.5-115.2-24.2-172.7-17.8c-5,0.6-18-1-14.9,3c3.9,5.1,12.8,1.3,19.1,2.5c6.2,1.1,12.4,2.6,18.5,4.4
		c16.2,4.7,32.4,9.5,48.4,14.9c1.2,0.4-2.6,0.4-3.9,0.1c-7.9-1.9-15.5-4.7-23.3-6.7c-7-1.8-14.1-3.6-21.2-4.7
		c-7.1-1.1-27.3,2.4-21.5-1.8c7.4-5.2,57.5,3.4,59.7,3.8c2.6,0.4,7.4-0.2,7.5,2.5c0.1,2.5-4.8,1.7-7.3,2.1c-5,0.8-10,1.4-15,1.6
		c-18.8,1-37.7,2.1-56.6,2c-8-0.1-15.8-1.4-23.7-2.7c-0.4-0.1-0.8-1-0.4-1.1c7.1-1.4,14.2-2.5,21.4-3.1c8.8-0.8,27.6,7.9,26.6-0.9
		c-1-9-18.1-0.5-27-2.3c-3.6-0.7,7.3-0.8,10.9-0.8c2.1,0,4.2,0.3,6.2,0.8c5.2,1.3,11.6,0.7,15.6,4.4c2.6,2.4-6.9,0.5-10.4,0.4
		c-2.3-0.1-4.7-0.6-6.9-1.2c-1.1-0.3-2.4-0.4-3.2-1.2c-0.4-0.4,0.9-0.6,1.4-0.7c6.1-0.4,12.4-1.5,18.4-0.6
		c12.1,1.7,23.9,5.3,35.7,8.3"/>
</g>
</svg>
