<?xml version="1.0" encoding="UTF-8"?>
<svg width="272px" height="60px" viewBox="0 0 272 60" version="1.1" xmlns="http://www.w3.org/2000/svg" xmlns:xlink="http://www.w3.org/1999/xlink">
    <title>Group 3</title>
    <g id="Sitemap" stroke="none" stroke-width="1" fill="none" fill-rule="evenodd">
        <g id="Start-temporär-–-Large" transform="translate(-738.000000, -3743.000000)">
            <g id="Group-3" transform="translate(739.000000, 3743.000000)">
                <text id="Beziehungstat" font-family="LabilGroteskTrial-Regular, Labil Grotesk Trial" font-size="40" font-weight="normal" line-spacing="60" fill="#FFFFFF">
                    <tspan x="10" y="40">Beziehungstat</tspan>
                </text>
                <path d="M248.191217,32.9816373 C201.045559,37.2895789 217.602129,36.3321214 132.307838,34.6409454 C117.02497,34.3379237 57.3712052,33.0704341 27.6307031,28.8229531 C25.5385134,28.5241506 19.3964941,27.18458 21.5098009,27.1682734 C79.8339732,26.7182375 138.161735,27.283599 196.487162,27.5200375 C204.765855,27.5535975 179.928829,27.9651506 171.652202,27.7769178 C164.418095,27.6123948 157.216434,26.6897505 149.984024,26.4624311 C129.404713,25.8156099 108.817517,25.3966441 88.2294836,25.1548871 C71.6986371,24.960772 22.1015498,25.1548871 38.6335332,25.1548871 C57.9986684,25.1548871 77.3694513,24.6866743 96.7289387,25.1548871 C104.59635,25.3451619 112.469269,25.9849327 120.255578,27.1289314 C148.96441,31.3469589 126.72455,34.4509752 116.182682,35.4833278 C107.076347,36.3751003 97.9417879,37.1364359 88.7934942,37.3023182 C59.8401276,37.827318 52.532135,38.4349795 27.2724176,31.5306106 C18.5182281,29.1377828 -2.12815584,31.4139625 1.40189765,23.0443027 C4.95353056,14.6234788 44.4140748,26.1275639 50.9076988,28.158767 C55.0020983,29.4394936 67.0346378,31.8057687 62.8813669,32.8798109 C52.7230065,35.5067783 41.8764731,33.8968242 31.407725,33.2014899 C29.6941388,33.0876735 -7.1384128,27.0052004 21.9443665,26.5550006 C34.7994983,26.3560038 47.7693747,24.862161 60.5143715,26.5550006 C116.52502,33.9945508 174.813936,54.7917117 232.498315,50.3962724 C237.548886,50.0114286 250.45088,52.0328023 247.490827,47.9177243 C243.732188,42.6924481 234.737491,46.1432005 228.453157,44.7726759 C222.26659,43.4234729 216.14721,41.7342532 210.127435,39.7692951 C194.076165,34.5298843 178.067278,29.1317959 162.269747,23.1692715 C161.060672,22.7129258 164.901023,22.8235445 166.146164,23.1692715 C173.938294,25.3328408 181.462409,28.3838444 189.224369,30.6535147 C196.182176,32.6880431 203.159175,34.7442759 210.284618,36.0757725 C217.338755,37.3939445 237.66582,34.6429587 231.666168,38.5844056 C224.127208,43.5370951 174.36335,33.1654013 172.179228,32.7155001 C169.607503,32.1857573 164.798034,32.6272322 164.784679,29.9985856 C164.771802,27.4638524 169.64576,28.4948485 172.156113,28.1657097 C177.15381,27.5104491 182.196696,27.1329574 187.236463,27.0548758 C206.106985,26.7625132 224.999867,26.2334932 243.854808,27.0548758 C251.798968,27.4009493 259.644759,29.0446412 267.453105,30.549374 C267.842395,30.6243936 268.22786,31.6111641 267.836817,31.6764075 C260.734935,32.8613165 253.560707,33.7096038 246.36974,34.0670146 C237.503656,34.5076833 219.033381,25.2076725 219.738731,34.0670146 C220.45581,43.0736776 237.826044,35.2484299 246.624007,37.2606619 C250.188213,38.0758517 239.319054,37.8327692 235.665096,37.709624 C233.591535,37.6397411 231.525467,37.2377551 229.525702,36.6844169 C224.331597,35.2472001 217.95866,35.5457888 214.128674,31.7504631 C211.660552,29.304677 221.085332,31.4700452 224.54669,31.7504631 C226.883666,31.9397905 229.174408,32.5472479 231.439639,33.1528909 C232.531165,33.4447263 233.82421,33.5907424 234.578682,34.4326641 C234.927788,34.8222341 233.656502,35.0275786 233.133983,35.0436227 C226.985922,35.2324002 220.738046,36.1163053 214.681127,35.0436227 C202.653226,32.9134768 191.028805,28.9111718 179.296395,25.5089654" id="Path" stroke="#FFFFFF" stroke-width="2" transform="translate(134.500000, 35.500000) scale(-1, -1) rotate(-2.000000) translate(-134.500000, -35.500000) "></path>
            </g>
        </g>
    </g>
</svg>