<?xml version="1.0" encoding="UTF-8"?>
<svg width="366px" height="60px" viewBox="0 0 366 60" version="1.1" xmlns="http://www.w3.org/2000/svg" xmlns:xlink="http://www.w3.org/1999/xlink">
    <title>Group 3</title>
    <g id="Sitemap" stroke="none" stroke-width="1" fill="none" fill-rule="evenodd">
        <g id="Start-temporär-–-Large" transform="translate(-292.000000, -3562.000000)">
            <g id="Group-3" transform="translate(294.000000, 3562.000000)">
                <text id="Familiendrama" font-family="LabilGroteskTrial-Regular, Labil Grotesk Trial" font-size="47" font-weight="normal" line-spacing="60" fill="#FFFFFF">
                    <tspan x="24" y="47">Familiendrama</tspan>
                </text>
                <path d="M335.143148,33.9936624 C271.222817,39.8302284 293.670302,38.5330279 178.027856,36.2417572 C157.307263,35.8312117 76.4283756,34.1139677 36.1060468,28.3593159 C33.2694451,27.9544868 24.9420631,26.1395847 27.8072956,26.117492 C106.883514,25.5077659 185.9646,26.2737395 265.042519,26.5940755 C276.266815,26.6395439 242.592644,27.1971319 231.37115,26.9421069 C221.56311,26.7192047 211.79906,25.4691705 201.99332,25.1611894 C174.091783,24.284851 146.179555,23.7172199 118.266191,23.3896782 C95.8535829,23.1266835 28.6095918,23.3896782 51.0237417,23.3896782 C77.2790935,23.3896782 103.542103,22.7553253 129.789797,23.3896782 C140.456474,23.6474698 151.130619,24.5142561 161.687339,26.0641899 C200.610923,31.7789368 170.458004,35.9843782 156.165284,37.3830494 C143.818867,38.5912574 131.434184,39.6227443 119.03088,39.8474881 C79.7757535,40.5587781 69.8675388,41.3820615 35.6202816,32.0277552 C23.7513056,28.7858595 -4.24117009,31.8697158 0.544894947,20.5301768 C5.36021747,9.12131856 58.8610302,24.7074984 67.6651197,27.4594509 C73.2163281,29.1946289 89.5301081,32.4005501 83.8990817,33.855704 C70.1263235,37.4148212 55.4205365,35.2335931 41.226953,34.2915271 C38.9036639,34.1373242 -11.0341027,25.8965543 28.3964819,25.2866061 C45.825537,25.0169977 63.4101635,22.9930815 80.6898969,25.2866061 C156.629428,35.3659968 235.657846,63.5427953 313.86663,57.5876841 C320.71422,57.0662828 338.206811,59.8049182 334.193556,54.2296512 C329.097573,47.1502447 316.902515,51.8254577 308.382183,49.9686179 C299.994403,48.1406655 291.697715,45.8520451 283.536073,43.1898439 C261.773677,36.0912873 240.068745,28.7777482 218.650368,20.6994894 C217.011099,20.0812146 222.217866,20.2310851 223.906035,20.6994894 C234.470645,23.6307768 244.671881,27.7643945 255.195587,30.8394317 C264.629017,33.5958895 274.08847,36.3817533 283.749183,38.1857165 C293.313219,39.971627 320.87276,36.2444848 312.738401,41.5845098 C302.517039,48.2946051 235.046939,34.242633 232.085695,33.6330893 C228.598937,32.9153734 222.078234,33.5135006 222.060127,29.9521084 C222.042667,26.5179537 228.650805,27.9147872 232.054356,27.4688572 C238.830259,26.5810848 245.66743,26.0696444 252.500373,25.9638565 C278.085126,25.5677523 303.700194,24.8510155 329.263822,25.9638565 C340.034555,26.4327302 350.671921,28.6596676 361.258516,30.6983379 C361.786319,30.7999773 362.308934,32.1368922 361.778755,32.2252865 C352.149987,33.8306471 342.42313,34.9799395 332.673581,35.4641735 C320.652897,36.0612086 295.610801,23.461194 296.567118,35.4641735 C297.539338,47.6667492 321.089993,37.0648007 333.018317,39.7910506 C337.850686,40.8955011 323.114223,40.5661637 318.160168,40.3993217 C315.348823,40.3046416 312.547638,39.7600155 309.836345,39.0103314 C302.79415,37.0631346 294.153688,37.4676741 288.960974,32.3256199 C285.614682,29.0119741 298.392847,31.9456989 303.085774,32.3256199 C306.254258,32.582128 309.360059,33.4051348 312.431272,34.2256833 C313.911168,34.6210733 315.664285,34.8189016 316.687202,35.9595696 C317.160522,36.4873742 315.436906,36.7655828 314.728471,36.78732 C306.392898,37.0430831 297.921995,38.2406319 289.709993,36.78732 C273.402501,33.9013158 257.642051,28.4788381 241.735188,23.8693971" id="Path" stroke="#FFFFFF" stroke-width="2"></path>
            </g>
        </g>
    </g>
</svg>