<svg class="strike-through" version="1.1" xmlns="http://www.w3.org/2000/svg" xmlns:xlink="http://www.w3.org/1999/xlink" x="0px" y="0px"
     width="326px" height="60px" viewBox="0 0 326 60" style="enable-background:new 0 0 326 60;" xml:space="preserve">
     <style type="text/css">
	 .st0{enable-background:new    ;}
	 .st1{fill:#FFFFFF;}
	 .st2{fill:none;stroke:#FFFFFF;stroke-width:2;}
     </style>
     <g transform="translate(-292.000000, -3562.000000)">
	 <g transform="translate(294.000000, 3562.000000)">
	     <g class="st0">
		 <path class="st1" d="M29.7,27h-4.4v-3.4h4.4v-2.7c0-4.2,2.9-7.3,7-7.3c1.2,0,2.2,0.1,3,0.3v3.5c-0.7-0.1-1.5-0.2-2.2-0.2
				      c-2.2,0-3.4,1.4-3.4,3.7v2.7h5.3V27h-5.3v20h-4.4V27z"/>
		 <path class="st1" d="M42.8,41.1c0-4.3,3.8-7,10.5-7.5l4.7-0.4v-1.1c0-3.3-2.3-5.7-5.5-5.7c-3.3,0-5.7,2.2-5.9,5.3l-4.1-0.1
				      c0.2-5.1,4.3-8.6,10-8.6c5.8,0,9.9,3.9,9.9,9.4v8c0,2.5,0.2,5.1,0.6,6.7h-4.2c-0.3-1-0.5-2.6-0.5-5.5h-0.1c-0.8,3.6-3.7,6-7.9,6
				      C45.7,47.4,42.8,44.9,42.8,41.1z M58.2,37.5v-2l-4.3,0.4c-4.3,0.4-6.7,2.1-6.7,4.8c0,2.3,1.8,3.8,4.7,3.8
				      C55.6,44.6,58.2,41.6,58.2,37.5z"/>
		 <path class="st1" d="M104.1,32.6V47h-4.4V33.2c0-4.3-1.9-6.7-5.3-6.7c-3.9,0-6,3-6,8.4V47h-4.4V33.2c0-4.3-2-6.7-5.5-6.7
				      c-3.9,0-6.2,3-6.2,8.4V47H68V23.5h4.4l-0.1,6.1c0.8-4.2,3.6-6.7,7.7-6.7c4.1,0,7,2.3,8,6.2c0.9-4,3.7-6.2,7.8-6.2
				      C100.9,22.9,104.1,26.6,104.1,32.6z"/>
		 <path class="st1" d="M108.5,16.4c0-1.8,1.4-3.1,3.1-3.1c1.8,0,3.1,1.4,3.1,3.1c0,1.8-1.4,3.1-3.1,3.1
				      C109.9,19.5,108.5,18.1,108.5,16.4z M109.4,23.5h4.4V47h-4.4V23.5z"/>
		 <path class="st1" d="M119.4,40.5V36V14.1h4.4V36v3.6c0,2.5,0.9,3.8,2.9,3.8c0.6,0,1.2-0.1,1.7-0.4l0.1,3.7
				      c-0.9,0.3-2.1,0.6-3.3,0.6C121.8,47.2,119.4,45.2,119.4,40.5z"/>
		 <path class="st1" d="M132,56.4v-3.8c0.6,0.1,1.3,0.2,2,0.2c2.5,0,4.4-0.9,5.8-4.1l1.1-2.4l-10.2-22.8h4.6l7.9,17.9l7.3-17.9h4.5
				      l-10.6,25.1c-2.2,5.4-5.4,7.9-9.6,7.9C133.6,56.6,132.8,56.6,132,56.4z"/>
		 <path class="st1" d="M191.1,14.1V42v5h-4.4v-4c-1.8,3-4.7,4.7-8.4,4.7c-6.7,0-11.4-5-11.4-12.2c0-7.3,4.7-12.5,11.4-12.5
				      c3.7,0,6.6,1.7,8.4,4.7V14.1H191.1z M187,35.4c0-5.2-3.2-8.8-7.8-8.8s-7.8,3.6-7.8,8.8c0,5.1,3.2,8.6,7.8,8.6S187,40.5,187,35.4
				      z"/>
		 <path class="st1" d="M196.7,23.5h4.4l-0.2,6.5h0.1c0.8-4.2,3.6-6.8,7.5-6.8c0.5,0,0.9,0,1.5,0.2v4.1c-0.7-0.1-1.2-0.2-2-0.2
				      c-4.1,0-7,2.8-7,8.5V47h-4.4V23.5z"/>
		 <path class="st1" d="M213,41.1c0-4.3,3.8-7,10.5-7.5l4.7-0.4v-1.1c0-3.3-2.3-5.7-5.5-5.7c-3.3,0-5.7,2.2-5.9,5.3l-4.1-0.1
				      c0.2-5.1,4.3-8.6,10-8.6c5.8,0,9.9,3.9,9.9,9.4v8c0,2.5,0.2,5.1,0.6,6.7H229c-0.3-1-0.5-2.6-0.5-5.5h-0.1c-0.8,3.6-3.7,6-7.9,6
				      C215.9,47.4,213,44.9,213,41.1z M228.4,37.5v-2l-4.3,0.4c-4.3,0.4-6.7,2.1-6.7,4.8c0,2.3,1.8,3.8,4.7,3.8
				      C225.8,44.6,228.4,41.6,228.4,37.5z"/>
		 <path class="st1" d="M274.3,32.6V47h-4.4V33.2c0-4.3-1.9-6.7-5.3-6.7c-3.9,0-6,3-6,8.4V47h-4.4V33.2c0-4.3-2-6.7-5.5-6.7
				      c-3.9,0-6.2,3-6.2,8.4V47h-4.4V23.5h4.4l-0.1,6.1c0.8-4.2,3.6-6.7,7.7-6.7c4.1,0,7,2.3,8,6.2c0.9-4,3.7-6.2,7.8-6.2
				      C271.1,22.9,274.3,26.6,274.3,32.6z"/>
		 <path class="st1" d="M279.2,41.1c0-4.3,3.8-7,10.5-7.5l4.7-0.4v-1.1c0-3.3-2.3-5.7-5.5-5.7c-3.3,0-5.7,2.2-5.9,5.3l-4.1-0.1
				      c0.2-5.1,4.3-8.6,10-8.6c5.8,0,9.9,3.9,9.9,9.4v8c0,2.5,0.2,5.1,0.6,6.7h-4.2c-0.3-1-0.5-2.6-0.5-5.5h-0.1c-0.8,3.6-3.7,6-7.9,6
				      C282,47.4,279.2,44.9,279.2,41.1z M294.5,37.5v-2l-4.3,0.4c-4.3,0.4-6.7,2.1-6.7,4.8c0,2.3,1.8,3.8,4.7,3.8
				      C291.9,44.6,294.5,41.6,294.5,37.5z"/>
	     </g>
	     <path class="st2 strike-through-line" d="M298.1,34c-56.9,5.8-36.9,4.5-139.8,2.2c-18.4-0.4-90.4-2.1-126.2-7.9c-2.5-0.4-9.9-2.2-7.4-2.2
				                      c70.3-0.6,140.7,0.2,211,0.5c10,0-20,0.6-30,0.3c-8.7-0.2-17.4-1.5-26.1-1.8c-24.8-0.9-49.6-1.4-74.5-1.8
				                      c-19.9-0.3-79.7,0-59.8,0c23.4,0,46.7-0.6,70.1,0c9.5,0.3,19,1.1,28.4,2.7c34.6,5.7,7.8,9.9-4.9,11.3c-11,1.2-22,2.2-33,2.5
				                      C71,40.6,62.1,41.4,31.7,32C21.1,28.8-3.8,31.9,0.5,20.5c4.3-11.4,51.9,4.2,59.7,6.9c4.9,1.7,19.4,4.9,14.4,6.4
				                      c-12.3,3.6-25.3,1.4-38,0.4c-2.1-0.2-46.5-8.4-11.4-9c15.5-0.3,31.1-2.3,46.5,0c67.5,10.1,137.8,38.3,207.4,32.3
				                      c6.1-0.5,21.7,2.2,18.1-3.4c-4.5-7.1-15.4-2.4-23-4.3c-7.5-1.8-14.8-4.1-22.1-6.8c-19.4-7.1-38.7-14.4-57.7-22.5
				                      c-1.5-0.6,3.2-0.5,4.7,0c9.4,2.9,18.5,7.1,27.8,10.1c8.4,2.8,16.8,5.5,25.4,7.3c8.5,1.8,33-1.9,25.8,3.4
				                      c-9.1,6.7-69.1-7.3-71.7-8c-3.1-0.7-8.9-0.1-8.9-3.7c0-3.4,5.9-2,8.9-2.5c6-0.9,12.1-1.4,18.2-1.5c22.8-0.4,45.5-1.1,68.3,0
				                      c9.6,0.5,19,2.7,28.5,4.7c0.5,0.1,0.9,1.4,0.5,1.5c-8.6,1.6-17.2,2.8-25.9,3.2c-10.7,0.6-33-12-32.1,0
				                      c0.9,12.2,21.8,1.6,32.4,4.3c4.3,1.1-8.8,0.8-13.2,0.6c-2.5-0.1-5-0.6-7.4-1.4c-6.3-1.9-13.9-1.5-18.6-6.7c-3-3.3,8.4-0.4,12.6,0
				                      c2.8,0.3,5.6,1.1,8.3,1.9c1.3,0.4,2.9,0.6,3.8,1.7c0.4,0.5-1.1,0.8-1.7,0.8c-7.4,0.3-14.9,1.5-22.3,0
				                      c-14.5-2.9-28.5-8.3-42.7-12.9"/>
	 </g>
     </g>
 </svg>
