<svg class="strike-through" version="1.1" xmlns="http://www.w3.org/2000/svg" xmlns:xlink="http://www.w3.org/1999/xlink" x="0px" y="0px"
     width="366px" height="60px" viewBox="0 0 366 60" style="enable-background:new 0 0 366 60;" xml:space="preserve">
     <style type="text/css">
	 .st0{enable-background:new    ;}
	 .st1{fill:#FFFFFF;}
	 .st2_{fill:none;stroke:#FFFFFF;stroke-width:2;}
     </style>
     <g transform="translate(-292.000000, -3562.000000)">
	 <g transform="translate(294.000000, 3562.000000)">
	     <g class="st0">
		 <path class="st1" d="M27.4,14.1h21v3.7H32v11.1h15.5v3.6H32V47h-4.6V14.1z"/>
		 <path class="st1" d="M52.7,41.1c0-4.3,3.8-7,10.5-7.5l4.7-0.4v-1.1c0-3.3-2.3-5.7-5.5-5.7c-3.3,0-5.7,2.2-5.9,5.3l-4.1-0.1
				      c0.2-5.1,4.3-8.6,10-8.6c5.8,0,9.9,3.9,9.9,9.4v8c0,2.5,0.2,5.1,0.6,6.7h-4.2c-0.3-1-0.5-2.6-0.5-5.5h-0.1c-0.8,3.6-3.7,6-7.9,6
				      C55.6,47.4,52.7,44.9,52.7,41.1z M68,37.5v-2l-4.3,0.4C59.4,36.3,57,38,57,40.7c0,2.3,1.8,3.8,4.7,3.8C65.5,44.6,68,41.6,68,37.5
				      z"/>
		 <path class="st1" d="M114,32.6V47h-4.4V33.2c0-4.3-1.9-6.7-5.3-6.7c-3.9,0-6,3-6,8.4V47h-4.4V33.2c0-4.3-2-6.7-5.5-6.7
				      c-3.9,0-6.2,3-6.2,8.4V47h-4.4V23.5h4.4l-0.1,6.1c0.8-4.2,3.6-6.7,7.7-6.7c4.1,0,7,2.3,8,6.2c0.9-4,3.7-6.2,7.8-6.2
				      C110.8,22.9,114,26.6,114,32.6z"/>
		 <path class="st1" d="M118.4,16.4c0-1.8,1.4-3.1,3.1-3.1c1.8,0,3.1,1.4,3.1,3.1c0,1.8-1.4,3.1-3.1,3.1
				      C119.7,19.5,118.4,18.1,118.4,16.4z M119.3,23.5h4.4V47h-4.4V23.5z"/>
		 <path class="st1" d="M129.2,40.5V36V14.1h4.4V36v3.6c0,2.5,0.9,3.8,2.9,3.8c0.6,0,1.2-0.1,1.7-0.4l0.1,3.7
				      c-0.9,0.3-2.1,0.6-3.3,0.6C131.6,47.2,129.2,45.2,129.2,40.5z"/>
		 <path class="st1" d="M141.5,16.4c0-1.8,1.4-3.1,3.1-3.1c1.8,0,3.1,1.4,3.1,3.1c0,1.8-1.4,3.1-3.1,3.1
				      C142.9,19.5,141.5,18.1,141.5,16.4z M142.5,23.5h4.4V47h-4.4V23.5z"/>
		 <path class="st1" d="M174.3,36.4H156c0,4.5,3.1,7.9,7.4,7.9c3.3,0,6.2-2,6.6-4.8l3.9,0.3c-0.5,4.5-4.8,7.8-10.5,7.8
				      c-6.8,0-11.8-5.1-11.8-12.5c0-7.1,4.7-12.4,11.6-12.4c6.4,0,11.2,5,11.2,12.1C174.4,35.4,174.4,35.9,174.3,36.4z M170.1,33.7
				      c0-4.2-2.9-7.5-7-7.5c-4,0-7,3.1-7.1,7.5H170.1z"/>
		 <path class="st1" d="M199.6,32.6V47h-4.4V33.2c0-4.3-2-6.7-5.6-6.7c-4,0-6.2,3-6.2,8.4V47h-4.4V23.5h4.4l-0.1,6.1
				      c0.8-4.2,3.7-6.7,7.8-6.7C196.3,22.9,199.6,26.6,199.6,32.6z"/>
		 <path class="st1" d="M228.2,14.1V42v5h-4.4v-4c-1.8,3-4.7,4.7-8.4,4.7c-6.7,0-11.4-5-11.4-12.2c0-7.3,4.7-12.5,11.4-12.5
				      c3.7,0,6.6,1.7,8.4,4.7V14.1H228.2z M224.1,35.4c0-5.2-3.2-8.8-7.8-8.8s-7.8,3.6-7.8,8.8c0,5.1,3.2,8.6,7.8,8.6
				      S224.1,40.5,224.1,35.4z"/>
		 <path class="st1" d="M233.7,23.5h4.4l-0.2,6.5h0.1c0.8-4.2,3.6-6.8,7.5-6.8c0.5,0,0.9,0,1.5,0.2v4.1c-0.7-0.1-1.2-0.2-2-0.2
				      c-4.1,0-7,2.8-7,8.5V47h-4.4V23.5z"/>
		 <path class="st1" d="M250.1,41.1c0-4.3,3.8-7,10.5-7.5l4.7-0.4v-1.1c0-3.3-2.3-5.7-5.5-5.7c-3.3,0-5.7,2.2-5.9,5.3l-4.1-0.1
				      c0.2-5.1,4.3-8.6,10-8.6c5.8,0,9.9,3.9,9.9,9.4v8c0,2.5,0.2,5.1,0.6,6.7H266c-0.3-1-0.5-2.6-0.5-5.5h-0.1c-0.8,3.6-3.7,6-7.9,6
				      C252.9,47.4,250.1,44.9,250.1,41.1z M265.4,37.5v-2l-4.3,0.4c-4.3,0.4-6.7,2.1-6.7,4.8c0,2.3,1.8,3.8,4.7,3.8
				      C262.8,44.6,265.4,41.6,265.4,37.5z"/>
		 <path class="st1" d="M311.4,32.6V47H307V33.2c0-4.3-1.9-6.7-5.3-6.7c-3.9,0-6,3-6,8.4V47h-4.4V33.2c0-4.3-2-6.7-5.5-6.7
				      c-3.9,0-6.2,3-6.2,8.4V47h-4.4V23.5h4.4l-0.1,6.1c0.8-4.2,3.6-6.7,7.7-6.7c4.1,0,7,2.3,8,6.2c0.9-4,3.7-6.2,7.8-6.2
				      C308.2,22.9,311.4,26.6,311.4,32.6z"/>
		 <path class="st1" d="M316.2,41.1c0-4.3,3.8-7,10.5-7.5l4.7-0.4v-1.1c0-3.3-2.3-5.7-5.5-5.7c-3.3,0-5.7,2.2-5.9,5.3l-4.1-0.1
				      c0.2-5.1,4.3-8.6,10-8.6c5.8,0,9.9,3.9,9.9,9.4v8c0,2.5,0.2,5.1,0.6,6.7h-4.2c-0.3-1-0.5-2.6-0.5-5.5h-0.1c-0.8,3.6-3.7,6-7.9,6
				      C319.1,47.4,316.2,44.9,316.2,41.1z M331.5,37.5v-2l-4.3,0.4c-4.3,0.4-6.7,2.1-6.7,4.8c0,2.3,1.8,3.8,4.7,3.8
				      C329,44.6,331.5,41.6,331.5,37.5z"/>
	     </g>
	     <path class="st2_  strike-through-line" d="M335.1,34c-63.9,5.8-41.5,4.5-157.1,2.2c-20.7-0.4-101.6-2.1-141.9-7.9c-2.8-0.4-11.2-2.2-8.3-2.2
			                    c79.1-0.6,158.2,0.2,237.2,0.5c11.2,0-22.4,0.6-33.7,0.3c-9.8-0.2-19.6-1.5-29.4-1.8c-27.9-0.9-55.8-1.4-83.7-1.8
			                    c-22.4-0.3-89.7,0-67.2,0c26.3,0,52.5-0.6,78.8,0c10.7,0.3,21.3,1.1,31.9,2.7c38.9,5.7,8.8,9.9-5.5,11.3
			                    c-12.3,1.2-24.7,2.2-37.1,2.5c-39.3,0.7-49.2,1.5-83.4-7.8C23.8,28.8-4.2,31.9,0.5,20.5c4.8-11.4,58.3,4.2,67.1,6.9
			                    c5.6,1.7,21.9,4.9,16.2,6.4c-13.8,3.6-28.5,1.4-42.7,0.4c-2.3-0.2-52.3-8.4-12.8-9c17.4-0.3,35-2.3,52.3,0
			                    c75.9,10.1,155,38.3,233.2,32.3c6.8-0.5,24.3,2.2,20.3-3.4c-5.1-7.1-17.3-2.4-25.8-4.3c-8.4-1.8-16.7-4.1-24.8-6.8
			                    c-21.8-7.1-43.5-14.4-64.9-22.5c-1.6-0.6,3.6-0.5,5.3,0c10.6,2.9,20.8,7.1,31.3,10.1c9.4,2.8,18.9,5.5,28.6,7.3
			                    c9.6,1.8,37.1-1.9,29,3.4c-10.2,6.7-77.7-7.3-80.7-8c-3.5-0.7-10-0.1-10-3.7c0-3.4,6.6-2,10-2.5c6.8-0.9,13.6-1.4,20.4-1.5
			                    c25.6-0.4,51.2-1.1,76.8,0c10.8,0.5,21.4,2.7,32,4.7c0.5,0.1,1.1,1.4,0.5,1.5c-9.6,1.6-19.4,2.8-29.1,3.2c-12,0.6-37.1-12-36.1,0
			                    c1,12.2,24.5,1.6,36.5,4.3c4.8,1.1-9.9,0.8-14.9,0.6c-2.8-0.1-5.6-0.6-8.3-1.4c-7-1.9-15.7-1.5-20.9-6.7c-3.3-3.3,9.4-0.4,14.1,0
			                    c3.2,0.3,6.3,1.1,9.3,1.9c1.5,0.4,3.2,0.6,4.3,1.7c0.5,0.5-1.3,0.8-2,0.8c-8.3,0.3-16.8,1.5-25,0c-16.3-2.9-32.1-8.3-48-12.9"/>
	 </g>
     </g>
 </svg>
