<svg version="1.1" id="Layer_1" xmlns="http://www.w3.org/2000/svg" xmlns:xlink="http://www.w3.org/1999/xlink" x="0px" y="0px" width="68px" height="34px" viewBox="0 0 68 34" style="enable-background:new 0 0 68 34;" xml:space="preserve">
     <title>Feminizidmap.org</title>
  <style type="text/css">
	  .svg-logo-front-black{fill:#000;}
  </style>
  <g transform="translate(-57.000000, -29.000000)">
	  <g transform="translate(-6.000000, -60.000000)">
		  <g>
			  <path class="svg-logo-front-black" d="M69.1,90.1h-3.5v2.2h3.3v1.1h-3.3v3.4h-1.4V89h4.9V90.1z"/>
			  <path class="svg-logo-front-black" d="M76.4,90.1H73v2.2h3.2v1.1H73v2.3h3.4v1.1h-4.8V89h4.7v1.1H76.4z"/>
			  <path class="svg-logo-front-black" d="M82.2,94.9h-1.1l-0.6-2.8c-0.1-0.5-0.2-1.3-0.3-1.8h-0.1c0,0.6,0.1,1.6,0.1,2.2v4.2H79V89h1.7l0.7,3.5 c0.1,0.3,0.1,0.8,0.1,1h0.1c0-0.2,0.1-0.7,0.1-1l0.7-3.5h1.7v7.8H83v-4.2c0-0.6,0-1.6,0.1-2.2H83c-0.1,0.5-0.2,1.3-0.3,1.8 L82.2,94.9z"/>
			  <path class="svg-logo-front-black" d="M89.9,90.1v5.7h1.8v1.1h-5v-1.1h1.8v-5.7h-1.8V89h5v1.1H89.9z"/>
			  <path class="svg-logo-front-black" d="M98.2,94.9L98.2,94.9c0-0.3,0-0.7,0-1.1V89h1.3v7.8H98l-2.2-5c-0.2-0.4-0.3-0.9-0.4-1h-0.1 c0,0.3,0.1,0.6,0.1,0.9v5.1h-1.3V89h1.6l2,4.8C98,94.2,98.2,94.7,98.2,94.9z"/>
			  <path class="svg-logo-front-black" d="M105.1,90.1v5.7h1.8v1.1h-5v-1.1h1.8v-5.7H102V89h5v1.1H105.1z"/>
			  <path class="svg-logo-front-black" d="M113.1,90.1h-3.6V89h5.1v1.1l-3.8,5.6h3.9v1.1h-5.4v-1.1L113.1,90.1z"/>
			  <path class="svg-logo-front-black" d="M120.4,90.1v5.7h1.8v1.1h-5v-1.1h1.8v-5.7h-1.8V89h5v1.1H120.4z"/>
			  <path class="svg-logo-front-black" d="M124.7,89h2.5c2.1,0,3.2,1.6,3.2,3.9s-1.3,4-3.2,4h-2.5V89z M127,95.7c1.3,0,1.9-1.2,1.9-2.9 c0-1.6-0.6-2.8-1.9-2.8h-1v5.7C126,95.7,127,95.7,127,95.7z"/>
		  </g>
		  <g>
			  <path class="svg-logo-front-black" d="M66.9,107.9h-1.1l-0.6-2.8c-0.1-0.5-0.2-1.3-0.3-1.8h-0.1c0,0.6,0.1,1.6,0.1,2.2v4.2h-1.2V102h1.7l0.7,3.5 c0.1,0.3,0.1,0.8,0.1,1h0.1c0-0.2,0.1-0.7,0.1-1l0.7-3.5H69v7.8h-1.2v-4.2c0-0.6,0-1.6,0.1-2.2h-0.1c-0.1,0.5-0.2,1.3-0.3,1.8 L66.9,107.9z"/>
			  <path class="svg-logo-front-black" d="M75.3,107.8h-2.5l-0.6,2h-1.3l2.4-7.8h1.6l2.4,7.8H76L75.3,107.8z M73.1,106.7H75c-0.4-1.5-0.7-2.7-0.9-3.6 l0,0C73.8,104.1,73.5,105.2,73.1,106.7z"/>
			  <path class="svg-logo-front-black" d="M80.7,109.8h-1.4V102H82c2.1,0,2.7,1.3,2.7,2.4s-0.6,2.4-2.8,2.4h-1.2V109.8z M81.7,105.7 c1.2,0,1.5-0.7,1.5-1.3c0-0.6-0.3-1.3-1.4-1.3h-1.2v2.7L81.7,105.7L81.7,105.7z"/>
			  <path class="svg-logo-front-black" d="M90.1,109.8h-1.7v-1.7h1.7V109.8z"/>
		  </g>
		  <g>
			  <path class="svg-logo-front-black" d="M63.5,119.3v-0.8c0-2.3,1-3.7,2.9-3.7c2,0,2.9,1.4,2.9,3.7v0.8c0,2.3-1,3.7-2.9,3.7S63.5,121.6,63.5,119.3z M67.9,119.3v-0.9c0-1.8-0.5-2.6-1.5-2.6s-1.5,0.8-1.5,2.6v0.9c0,1.8,0.5,2.6,1.5,2.6S67.9,121.1,67.9,119.3z"/>
			  <path class="svg-logo-front-black" d="M74,119.6h-1.2v3.2h-1.4V115h2.7c1.7,0,2.7,0.8,2.7,2.3c0,1-0.5,1.7-1.5,2l1.7,3.4h-1.5L74,119.6z M72.8,118.6H74c0.9,0,1.4-0.5,1.4-1.3S74.9,116,74,116h-1.2V118.6z"/>
			  <path class="svg-logo-front-black" d="M78.7,119.4v-1c0-2.2,1-3.6,2.9-3.6c2,0,2.6,1.5,2.7,2.4l-1.3,0.2c0-0.7-0.4-1.6-1.3-1.6s-1.5,0.6-1.5,2.6 v0.7c0,1.7,0.5,2.7,1.5,2.7c1.2,0,1.5-1.2,1.5-1.9v-0.3h-1.7v-1h2.9v4.2h-0.9l-0.1-1.1c-0.3,0.8-0.9,1.3-2,1.3 C79.7,123,78.7,121.6,78.7,119.4z"/>
		  </g>
	  </g>
  </g>
</svg>
