<svg class="strike-through" version="1.1" xmlns="http://www.w3.org/2000/svg" xmlns:xlink="http://www.w3.org/1999/xlink" x="0px" y="0px"
     width="297px" height="60px" viewBox="0 0 297 60" style="enable-background:new 0 0 297 60;" xml:space="preserve">
     <style type="text/css">
	 .st0{enable-background:new    ;}
	 .st1{fill:#FFFFFF;}
	 .st2{fill:none;stroke:#FFFFFF;stroke-width:2;}
     </style>

     <g transform="translate(-738.000000, -3743.000000)">
	 <g transform="translate(739.000000, 3743.000000)">
	     <g class="st0">
		 <path class="st1" d="M12.4,25h3.7l-0.2,5.6H16c0.7-3.6,3.1-5.8,6.4-5.8c0.4,0,0.8,0,1.3,0.2v3.5c-0.6-0.1-1-0.2-1.7-0.2
				      c-3.5,0-5.9,2.4-5.9,7.2V45h-3.7V25z"/>
		 <path class="st1" d="M45.3,36H29.7c0,3.8,2.6,6.8,6.3,6.8c2.8,0,5.2-1.7,5.6-4.1l3.3,0.3c-0.4,3.8-4.1,6.7-8.9,6.7
				      c-5.8,0-10-4.4-10-10.6c0-6,4-10.6,9.9-10.6c5.5,0,9.5,4.2,9.5,10.3C45.4,35.1,45.4,35.6,45.3,36z M41.7,33.6
				      c0-3.6-2.4-6.4-5.9-6.4c-3.4,0-5.9,2.6-6.1,6.4H41.7z"/>
		 <path class="st1" d="M49.4,39.4v-3.8V17h3.7v18.6v3.1c0,2.2,0.8,3.2,2.5,3.2c0.5,0,1-0.1,1.5-0.3l0.1,3.1
				      c-0.8,0.3-1.8,0.5-2.8,0.5C51.4,45.2,49.4,43.4,49.4,39.4z"/>
		 <path class="st1" d="M60.2,40c0-3.6,3.2-5.9,9-6.4l4-0.4v-0.9c0-2.8-1.9-4.8-4.7-4.8c-2.8,0-4.8,1.8-5,4.5L60,31.8
				      c0.2-4.4,3.6-7.4,8.5-7.4c5,0,8.4,3.3,8.4,8v6.8c0,2.2,0.2,4.3,0.5,5.7h-3.6c-0.2-0.8-0.4-2.2-0.4-4.7h-0.1
				      c-0.6,3-3.2,5.1-6.8,5.1C62.7,45.4,60.2,43.2,60.2,40z M73.3,36.9v-1.7l-3.6,0.3c-3.7,0.3-5.7,1.8-5.7,4.1c0,2,1.6,3.2,4,3.2
				      C71.1,42.9,73.3,40.4,73.3,36.9z"/>
		 <path class="st1" d="M88,35.2v3.3c0,2.3,1.1,3.5,2.9,3.5c0.7,0,1.3-0.1,1.9-0.3l0.1,3.1c-0.9,0.2-1.8,0.4-2.7,0.4
				      c-3.4,0-5.8-2.2-5.8-6.5v-3.5V28h-3.7V25h3.7v-4.8H88V25h4.9V28H88V35.2z"/>
		 <path class="st1" d="M96.1,18.9c0-1.5,1.2-2.7,2.7-2.7c1.5,0,2.7,1.2,2.7,2.7c0,1.5-1.2,2.7-2.7,2.7
				      C97.3,21.6,96.1,20.4,96.1,18.9z M96.9,25h3.7v20h-3.7V25z"/>
		 <path class="st1" d="M104.6,35c0-6.1,4.4-10.6,10.3-10.6c5.9,0,10.3,4.5,10.3,10.6c0,6.1-4.4,10.6-10.3,10.6
				      C109,45.6,104.6,41.1,104.6,35z M121.5,35c0-4.4-2.7-7.4-6.6-7.4s-6.6,3.1-6.6,7.4c0,4.4,2.7,7.4,6.6,7.4S121.5,39.4,121.5,35z"
		       />
		 <path class="st1" d="M146.7,32.8V45H143V33.3c0-3.7-1.7-5.7-4.8-5.7c-3.4,0-5.3,2.5-5.3,7.2V45h-3.7V25h3.7l-0.1,5.2
				      c0.7-3.6,3.1-5.7,6.6-5.7C144,24.5,146.7,27.6,146.7,32.8z"/>
		 <path class="st1" d="M150.4,38.6l3.4-0.1c0.2,2.7,2.1,4.5,5,4.5c2.5,0,4.2-1.2,4.2-3c0-1.6-1.2-2.4-3.6-3.1l-2.3-0.6
				      c-3.8-0.9-5.5-2.6-5.5-5.7c0-3.7,3.1-6.2,7.4-6.2c4.6,0,8,2.9,8.1,7l-3.4,0.1c-0.1-2.6-2.1-4.5-4.8-4.5c-2.2,0-3.9,1.3-3.9,3.2
				      c0,1.5,0.9,2.4,2.7,2.9l2.3,0.6c4.3,1,6.5,2.9,6.5,5.8c0,3.6-3.2,6.1-7.8,6.1C153.9,45.7,150.5,42.8,150.4,38.6z"/>
		 <path class="st1" d="M188.1,32.8V45h-3.7V33.3c0-3.7-1.7-5.7-4.8-5.7c-3.4,0-5.3,2.5-5.3,7.2V45h-3.7V17h3.7v12.7
				      c0.8-3.3,3.2-5.2,6.5-5.2C185.4,24.5,188.1,27.6,188.1,32.8z"/>
		 <path class="st1" d="M191.8,18.9c0-1.5,1.2-2.7,2.7-2.7s2.7,1.2,2.7,2.7c0,1.5-1.2,2.7-2.7,2.7S191.8,20.4,191.8,18.9z
				      M192.6,25h3.7v20h-3.7V25z"/>
		 <path class="st1" d="M221.6,35.1c0,6.1-3.9,10.4-9.6,10.4c-3.2,0-5.6-1.4-7.2-4v11h-3.7V29.3V25h3.7v3.5c1.5-2.6,4-4,7.2-4
				      C217.7,24.5,221.6,28.9,221.6,35.1z M217.9,35.1c0-4.5-2.8-7.5-6.7-7.5c-3.9,0-6.6,3.1-6.6,7.5c0,4.3,2.7,7.3,6.6,7.3
				      C215.1,42.4,217.9,39.4,217.9,35.1z"/>
		 <path class="st1" d="M233.3,40c0-3.6,3.2-5.9,9-6.4l4-0.4v-0.9c0-2.8-1.9-4.8-4.7-4.8c-2.8,0-4.8,1.8-5,4.5l-3.5-0.1
				      c0.2-4.4,3.6-7.4,8.5-7.4c5,0,8.4,3.3,8.4,8v6.8c0,2.2,0.2,4.3,0.5,5.7h-3.6c-0.2-0.8-0.4-2.2-0.4-4.7h-0.1
				      c-0.6,3-3.2,5.1-6.8,5.1C235.7,45.4,233.3,43.2,233.3,40z M246.3,36.9v-1.7l-3.6,0.3c-3.7,0.3-5.7,1.8-5.7,4.1
				      c0,2,1.6,3.2,4,3.2C244.2,42.9,246.3,40.4,246.3,36.9z"/>
		 <path class="st1" d="M254,35c0-6.2,4.2-10.6,10.3-10.6c5.3,0,9.2,3.3,9.5,8l-3.6,0.3c-0.3-3-2.7-5.2-5.9-5.2
				      c-3.9,0-6.6,3.1-6.6,7.4c0,4.4,2.7,7.4,6.6,7.4c3.3,0,5.7-2.1,6-5.2l3.5,0.3c-0.3,4.8-4.2,8.1-9.5,8.1
				      C258.2,45.6,254,41.2,254,35z"/>
		 <path class="st1" d="M283.9,35.2v3.3c0,2.3,1.1,3.5,2.9,3.5c0.7,0,1.3-0.1,1.9-0.3l0.1,3.1c-0.9,0.2-1.8,0.4-2.7,0.4
				      c-3.4,0-5.8-2.2-5.8-6.5v-3.5V28h-3.7V25h3.7v-4.8h3.7V25h4.9V28h-4.9V35.2z"/>
	     </g>
	     <path class="st2 strike-through-line" d="M22.8,40.7c51.5-6.5,33.4-4.8,127-6.3c16.8-0.3,82.2-1.1,115,2.4c2.3,0.2,9.1,1.5,6.8,1.6
				                      c-63.9,2.7-127.9,4.3-191.9,6.3c-9.1,0.3,18.1-1.1,27.2-1.2c7.9-0.1,15.9,0.6,23.8,0.6c22.6-0.1,45.2-0.4,67.8-0.9
				                      c18.1-0.4,72.5-2.5,54.4-1.9c-21.2,0.7-42.5,2-63.7,2.2c-8.6,0.1-17.3-0.3-25.9-1.3c-31.6-3.5-7.4-7.8,4.1-9.3
				                      c10-1.3,19.9-2.5,30-3c31.7-1.7,39.7-2.6,67.7,4c9.7,2.3,32.2-1,28.7,8.3c-3.6,9.4-47.3-1.7-54.5-3.7c-4.5-1.2-17.8-3.4-13.3-4.7
				                      c11-3.3,23-1.9,34.5-1.6c1.9,0.1,42.5,5.3,10.6,6.9c-14.1,0.7-28.3,2.8-42.3,1.5c-61.7-6-126.4-26.6-189.5-19.5
				                      c-5.5,0.6-19.8-1.1-16.3,3.3c4.3,5.6,14.1,1.5,21,2.7c6.8,1.2,13.6,2.9,20.3,4.8c17.8,5.1,35.6,10.4,53.1,16.4
				                      c1.3,0.5-2.9,0.5-4.3,0.1c-8.6-2.1-17-5.1-25.6-7.3c-7.7-2-15.4-4-23.3-5.1c-7.8-1.2-30,2.6-23.5-1.9c8.1-5.7,63.1,3.7,65.5,4.2
				                      c2.8,0.5,8.1-0.2,8.2,2.7c0.1,2.8-5.3,1.8-8,2.3c-5.5,0.9-11,1.5-16.5,1.8c-20.7,1-41.4,2.3-62.1,2.2c-8.7-0.1-17.4-1.6-26-2.9
				                      c-0.4-0.1-0.9-1.1-0.5-1.2c7.7-1.6,15.6-2.8,23.5-3.4c9.7-0.8,30.3,8.7,29.2-1c-1.1-9.8-19.9-0.6-29.6-2.5c-3.9-0.8,8-0.9,12-0.9
				                      c2.3,0,4.6,0.4,6.8,0.9c5.8,1.4,12.7,0.8,17.1,4.8c2.8,2.6-7.6,0.6-11.4,0.4c-2.6-0.1-5.1-0.7-7.6-1.3c-1.2-0.3-2.6-0.4-3.5-1.3
				                      c-0.4-0.4,1-0.7,1.6-0.7c6.7-0.4,13.6-1.7,20.2-0.7c13.3,1.9,26.2,5.8,39.2,9.1"/>
	 </g>
     </g>

 </svg>
