<?xml version="1.0" encoding="utf-8"?>
<svg version="1.1" id="Layer_1" xmlns="http://www.w3.org/2000/svg" xmlns:xlink="http://www.w3.org/1999/xlink" x="0px" y="0px"
	 width="285px" height="68px" viewBox="0 0 285 68" style="enable-background:new 0 0 285 68;" xml:space="preserve">
<style type="text/css">
	.st0{enable-background:new    ;}
	.st1{fill:#FFFFFF;}
	.st2{fill-rule:evenodd;clip-rule:evenodd;fill:#FFFFFF;}
	.st3{fill:none;stroke:#FFFFFF;stroke-width:3;}
</style>
<g class="st0">
	<path class="st1" d="M25.1,23.7H11.9V19h32.3v4.7H30.9V61h-5.9V23.7z"/>
	<path class="st1" d="M49.5,31.1h5.6l-0.2,8.3h0.2c1-5.4,4.6-8.7,9.6-8.7c0.7,0,1.2,0.1,1.9,0.2v5.2c-0.9-0.2-1.5-0.2-2.6-0.2
		c-5.2,0-8.9,3.5-8.9,10.8V61h-5.6V31.1z"/>
	<path class="st1" d="M70.4,53.4c0-5.5,4.9-8.9,13.4-9.6l6.1-0.5v-1.4c0-4.3-2.9-7.3-7.1-7.3c-4.3,0-7.3,2.8-7.5,6.7l-5.2-0.2
		c0.3-6.5,5.5-11,12.7-11c7.4,0,12.7,4.9,12.7,12v10.3c0,3.2,0.3,6.5,0.7,8.6h-5.4c-0.4-1.3-0.6-3.4-0.6-7.1H90
		c-1,4.6-4.7,7.6-10.1,7.6C74.1,61.5,70.4,58.4,70.4,53.4z M90,48.9v-2.5l-5.5,0.5c-5.5,0.5-8.6,2.6-8.6,6.2c0,2.9,2.3,4.9,5.9,4.9
		C86.7,57.9,90,54.2,90,48.9z"/>
	<path class="st1" d="M102.7,61.7l5.5-0.2c0.3,4.4,4.1,7.3,9.3,7.3c5.9,0,9.4-3.8,9.4-10.2v-5.1c-1.4,3.7-5.6,6.6-10.6,6.6
		c-8.2,0-14.5-6.1-14.5-14.9c0-8.4,6-15,14.6-15c4.8,0,9.4,2.9,10.8,6.8v-5.9h5.2v26.9c0,9.5-5.6,15.4-14.8,15.4
		C108.9,73.3,102.9,68.7,102.7,61.7z M127.2,45.2c0-5.9-4.1-10.4-10-10.4c-5.6,0-9.9,4.3-9.9,10.4c0,5.9,4.1,10.4,9.9,10.4
		C123,55.5,127.2,51.3,127.2,45.2z"/>
	<path class="st1" d="M138.5,46c0-9.1,6.5-15.8,15.5-15.8c8.9,0,15.5,6.7,15.5,15.8c0,9.2-6.6,15.9-15.5,15.9
		C145,61.9,138.5,55.2,138.5,46z M163.8,46c0-6.5-4-11.2-9.8-11.2c-5.8,0-9.8,4.6-9.8,11.2c0,6.6,4,11.2,9.8,11.2
		C159.8,57.2,163.8,52.6,163.8,46z"/>
	<path class="st1" d="M205.1,19v35.6V61h-5.6v-5.2c-2.3,3.8-6,5.9-10.7,5.9c-8.6,0-14.5-6.4-14.5-15.6c0-9.4,5.9-15.9,14.5-15.9
		c4.7,0,8.4,2.2,10.7,6.1V19H205.1z M199.8,46.2c0-6.7-4.1-11.3-10-11.3s-10,4.6-10,11.3c0,6.5,4.1,11,10,11S199.8,52.7,199.8,46.2z
		"/>
	<path class="st1" d="M210.9,21.9c0-2.3,1.7-4,4-4s4,1.7,4,4c0,2.3-1.7,4-4,4S210.9,24.2,210.9,21.9z M212.1,31.1h5.6V61h-5.6V31.1z
		"/>
	<path class="st1" d="M252.7,47.5h-23.3c0.1,5.7,3.9,10.1,9.4,10.1c4.3,0,7.9-2.5,8.5-6.2l4.9,0.4c-0.6,5.8-6.2,10-13.4,10
		c-8.7,0-15.1-6.5-15.1-15.9c0-9.1,6.1-15.8,14.8-15.8c8.2,0,14.3,6.4,14.3,15.5C252.8,46.2,252.8,46.8,252.7,47.5z M247.4,44
		c0-5.4-3.7-9.6-8.9-9.6c-5.1,0-8.9,3.9-9.1,9.6H247.4z"/>
</g>
<circle id="Oval" class="st2" cx="147" cy="22" r="4"/>
<circle id="Oval_1_" class="st2" cx="160" cy="22" r="4"/>
<path id="Path-2" class="st3" d="M247.2,36.1c-72.2-0.5-144.5-1.2-216.7-1.6c-45.7-0.3,91.4,1.2,137.1,1.2c8.2,0-16.5,0.1-24.7-1.3
	C109,28.3,75.5,19.8,41.7,13.1c-7.1-1.4-14.3-2.3-21.6-2.9c-5.8-0.4-12.2-2.6-17.5,0c-2.5,1.2,3.9,4.2,6.3,5.4
	c7.1,3.7,14.6,6.4,22.1,9.2c4.2,1.6,8.6,3,13,3.7c3,0.5,7.5-2.8,9,0c2.6,4.7-0.5,11,0,16.4c0.2,1.9,0.5,4.4,2.1,5.4
	c4.7,2.8,10.1,4.4,15.5,5.1c26.7,3.8,27.3-5.3,58-14.3c4.5-1.3,30.2-4.6,37.4-4.7c39-0.2,125.1-40.4,116.9,0.5
	c-8.4,42-79.8,7.5-119.5,12.5c-6.8,0.9,13.7,0.6,20.6,0c13.3-1.2,26.4-3.5,39.6-5.5c9.1-1.4,18.4-2.1,27.4-4.6c3.8-1,8-2.5,10.4-5.8
	c1.7-2.4,1.4-6.5,0-9.1c-4.6-8.4-27.1-6.2-31.3-4.7c-6.4,2.3-11.2,8.1-17.1,11.6c-0.5,0.3,0.7-1.1,0.6-1.7h6.6
	c-1.7-6.7-6.8-11.9-10.9-17.3c-1.2-1.6-2.8-3.1-4.7-3.4c-10.1-1.2-11,8.8-20.9,11.2c-9.5,2.3-22.9,27.4-31.7,31.8
	c-13.8,6.9-33.1-18.8-45.8-9.8c-2.8,2,0.5,7.6-1.1,10.7c-0.9,1.7-3.6,1.6-5.4,1.6c-46.1,0.5-17.8-16.9-63.8-16.9
	C2,37.7,28.5,56.5,62,54.5c27-1.6,25.2-29.4,58.1-23c22.7,4.4,44.8,11.5,67.5,15.8c6.5,1.2,13.2,0.6,19.8,0.8"/>
</svg>
