<?xml version="1.0" encoding="utf-8"?>
<svg version="1.1" id="Layer_1" xmlns="http://www.w3.org/2000/svg" xmlns:xlink="http://www.w3.org/1999/xlink" x="0px" y="0px"
	 width="248px" height="68px" viewBox="0 0 248 68" style="enable-background:new 0 0 248 68;" xml:space="preserve">
<style type="text/css">
	.st0{enable-background:new    ;}
	.st1{fill:#FFFFFF;}
	.st2{fill:none;stroke:#FFFFFF;stroke-width:3;}
</style>
<g id="Sitemap">
	<g id="Start-temporär-_x2013_-Large" transform="translate(-658.000000, -3449.000000)">
		<g id="Group-3" transform="translate(660.000000, 3449.000000)">
			<g class="st0">
				<path class="st1" d="M28.1,37.2v4.9c0,3.4,1.6,5.3,4.4,5.3c1.1,0,2-0.2,2.8-0.4l0.1,4.7c-1.3,0.4-2.6,0.6-4.1,0.6
					c-5.2,0-8.8-3.2-8.8-9.8v-5.3V26.4H17v-4.4h5.6v-7.2h5.5v7.2h7.3v4.4h-7.3V37.2z"/>
				<path class="st1" d="M41.4,22.1H47l-0.2,8.3h0.2c1-5.4,4.6-8.7,9.6-8.7c0.7,0,1.2,0.1,1.9,0.2v5.2c-0.9-0.2-1.5-0.2-2.6-0.2
					c-5.2,0-8.9,3.5-8.9,10.8V52h-5.6V22.1z"/>
				<path class="st1" d="M62.3,44.4c0-5.5,4.9-8.9,13.4-9.6l6.1-0.5v-1.4c0-4.3-2.9-7.3-7.1-7.3c-4.3,0-7.3,2.8-7.5,6.7L62,32.2
					c0.3-6.5,5.5-11,12.7-11c7.4,0,12.7,4.9,12.7,12v10.3c0,3.2,0.3,6.5,0.7,8.6h-5.4c-0.4-1.3-0.6-3.4-0.6-7.1h-0.2
					c-1,4.6-4.7,7.6-10.1,7.6C65.9,52.5,62.3,49.4,62.3,44.4z M81.8,39.9v-2.5l-5.5,0.5c-5.5,0.5-8.6,2.6-8.6,6.2
					c0,2.9,2.3,4.9,5.9,4.9C78.6,48.9,81.8,45.2,81.8,39.9z"/>
				<path class="st1" d="M94.6,52.7l5.5-0.2c0.3,4.4,4.1,7.3,9.3,7.3c5.9,0,9.4-3.8,9.4-10.2v-5.1c-1.4,3.7-5.6,6.6-10.6,6.6
					c-8.2,0-14.5-6.1-14.5-14.9c0-8.4,6-15,14.6-15c4.8,0,9.4,2.9,10.8,6.8v-5.9h5.2v26.9c0,9.5-5.6,15.4-14.8,15.4
					C100.7,64.3,94.8,59.7,94.6,52.7z M119.1,36.2c0-5.9-4.1-10.4-10-10.4c-5.6,0-9.9,4.3-9.9,10.4c0,5.9,4.1,10.4,9.9,10.4
					C114.8,46.5,119.1,42.3,119.1,36.2z"/>
				<path class="st1" d="M159.3,38.5H136c0.1,5.7,3.9,10.1,9.4,10.1c4.3,0,7.9-2.5,8.5-6.2l4.9,0.4c-0.6,5.8-6.2,10-13.4,10
					c-8.7,0-15.1-6.5-15.1-15.9c0-9.1,6.1-15.8,14.8-15.8c8.2,0,14.3,6.4,14.3,15.5C159.4,37.2,159.4,37.8,159.3,38.5z M154,35
					c0-5.4-3.7-9.6-8.9-9.6c-5.1,0-8.9,3.9-9.1,9.6H154z"/>
				<path class="st1" d="M195.1,10v35.6V52h-5.6v-5.2c-2.3,3.8-6,5.9-10.7,5.9c-8.6,0-14.5-6.4-14.5-15.6c0-9.4,5.9-15.9,14.5-15.9
					c4.7,0,8.4,2.2,10.7,6.1V10H195.1z M189.9,37.2c0-6.7-4.1-11.3-10-11.3c-5.9,0-10,4.6-10,11.3c0,6.5,4.1,11,10,11
					C185.8,48.2,189.9,43.7,189.9,37.2z"/>
				<path class="st1" d="M201.4,63.9v-4.8c0.8,0.2,1.7,0.3,2.5,0.3c3.2,0,5.6-1.2,7.4-5.2l1.4-3.1l-13-29.1h5.9l10.1,22.9l9.3-22.9
					h5.7L217,54.2c-2.8,6.8-6.8,10.1-12.3,10.1C203.5,64.3,202.4,64.2,201.4,63.9z"/>
			</g>
			<path id="Path-2" class="st2" d="M212.5,36.1c-62.6-0.5-125.3-1.2-187.9-1.6c-39.6-0.3,79.3,1.2,118.9,1.2
				c7.1,0-14.3,0.1-21.4-1.3c-29.4-6.1-58.5-14.6-87.8-21.3c-6.2-1.4-12.4-0.3-18.7-0.9c-5.1-0.4-10.6-4.6-15.2-2
				c-2.1,1.2,3.4,4.2,5.5,5.4c6.2,3.7,12.7,6.4,19.2,9.2c3.7,1.6,7.4,3,11.3,3.7c2.6,0.5,6.5-2.8,7.8,0c2.2,4.7-0.5,11,0,16.4
				c0.2,1.9,0.5,4.4,1.8,5.4c4.1,2.8,8.8,4.4,13.4,5.1c23.2,3.8,23.7-5.3,50.3-14.3c3.9-1.3,26.2-4.6,32.4-4.7
				c33.8-0.2,108.5-40.4,101.4,0.5c-7.3,42-69.2,7.5-103.6,12.5c-5.9,0.9,11.9,0.6,17.8,0c11.5-1.2,22.9-3.5,34.3-5.5
				c7.9-1.4,16-2.1,23.7-4.6c3.3-1,7-2.5,9-5.8c1.5-2.4,1.2-6.5,0-9.1c-4-8.4-23.5-6.2-27.2-4.7c-5.5,2.3-9.7,8.1-14.8,11.6
				c-0.4,0.3,0.6-1.1,0.5-1.7h5.7c-1.4-6.7-5.9-11.9-9.5-17.3c-1-1.6-2.4-3.1-4.1-3.4c-8.8-1.2-9.5,8.8-18.2,11.2
				c-8.2,2.3-19.9,27.4-27.5,31.8c-12,6.9-28.7-18.8-39.7-9.8c-2.4,2,0.5,7.6-1,10.7c-0.8,1.7-3.1,1.6-4.7,1.6
				C44.5,55.1,69,37.7,29.1,37.7C0,37.7,22.9,56.5,52,54.5c23.4-1.6,21.8-29.4,50.4-23c19.7,4.4,38.9,11.5,58.5,15.8
				c5.6,1.2,11.5,0.6,17.2,0.8"/>
		</g>
	</g>
</g>
</svg>
