<?xml version="1.0" encoding="UTF-8"?>
<svg width="285px" height="68px" viewBox="0 0 285 68" version="1.1" xmlns="http://www.w3.org/2000/svg" xmlns:xlink="http://www.w3.org/1999/xlink">
    <title>Group 3</title>
    <g id="Sitemap" stroke="none" stroke-width="1" fill="none" fill-rule="evenodd">
        <g id="Start-temporär-–-Large" transform="translate(-951.000000, -3334.000000)">
            <g id="Group-3" transform="translate(953.000000, 3334.000000)">
                <text id="Tragodie" font-family="LabilGroteskTrial-Regular, Labil Grotesk Trial" font-size="60" font-weight="normal" line-spacing="60" fill="#FFFFFF">
                    <tspan x="8" y="61">Tragodie</tspan>
                </text>
                <circle id="Oval" fill="#FFFFFF" cx="145" cy="16" r="4"></circle>
                <circle id="Oval" fill="#FFFFFF" cx="158" cy="16" r="4"></circle>
                <path d="M245.168305,36.1478792 C172.92205,35.6047828 100.676609,34.9176672 28.4295396,34.5185902 C-17.2868997,34.2660626 119.85918,35.7607811 165.576198,35.7082298 C173.804642,35.6987712 149.037334,35.8456199 140.92143,34.3892815 C106.998302,28.3020292 73.4922818,19.7646365 39.6610666,13.1136987 C32.5364968,11.713067 25.3233031,10.7734996 18.0971771,10.2430467 C12.2635485,9.81481373 5.89081297,7.67401954 0.555442788,10.2430467 C-1.90388884,11.4272363 4.45716283,14.3932376 6.88973496,15.6395276 C14.0182385,19.291704 21.5167988,22.0715697 28.9915174,24.811821 C33.2356688,26.367738 37.5663447,27.7667414 41.9972884,28.5100484 C44.974447,29.0094776 49.5056292,25.7235134 51.0371021,28.5100484 C53.6321732,33.2318145 50.5115653,39.5045401 51.0371021,44.9581084 C51.2235111,46.8925009 51.5580359,49.391525 53.1405045,50.3373481 C57.858468,53.1572201 63.2672191,54.6964936 68.6189777,55.4665911 C95.3566165,59.3140348 95.9438654,50.2112867 126.607054,41.199537 C131.062398,39.890135 156.844949,36.5699449 163.970547,36.5271845 C202.947452,36.2932858 289.113844,-3.86083347 280.902062,37.0530397 C272.467571,79.0765252 201.122928,44.5148526 161.361364,49.5270139 C154.546681,50.3860419 175.108833,50.1491668 181.945807,49.5270139 C195.197737,48.321111 208.345368,46.0274071 221.517069,44.0529478 C230.660361,42.6823536 239.941176,41.9483411 248.885386,39.4926628 C252.66233,38.4556839 256.921712,37.0422071 259.25789,33.6910148 C260.946548,31.2686739 260.686565,27.2216492 259.25789,24.6135478 C254.665087,16.2292069 232.195418,18.392988 227.939672,19.9239541 C221.563089,22.2178724 216.764007,27.9900852 210.887661,31.5013884 C210.392162,31.7974649 211.595629,30.3656371 211.449639,29.7772731 L218.056892,29.7772731 C216.386774,23.0463871 211.238178,17.8794695 207.154524,12.4671554 C205.972439,10.9004673 204.332403,9.33576828 202.466023,9.11375118 C192.323467,7.90723286 191.484796,17.914054 181.522262,20.2865659 C172.032015,22.5466057 158.588009,47.6410456 149.776168,52.0482846 C135.934858,58.9710107 116.705048,33.2536638 103.935266,42.2426268 C101.142206,44.2087303 104.462657,49.8199833 102.803282,52.9321416 C101.87069,54.6812172 99.2530532,54.5231188 97.3761824,54.5441895 C51.323284,55.0612014 79.6089271,37.6771909 33.5535117,37.6771909 C-0.0447300156,37.6771909 26.4547666,56.4789032 60.0046614,54.5441895 C86.9595509,52.9897883 85.200794,25.1648643 118.145275,31.5358707 C140.811992,35.9192999 162.98368,42.9859936 185.662888,47.2942846 C192.179394,48.5322026 198.888098,47.8517485 205.500703,48.1304805" id="Path-2" stroke="#FFFFFF" stroke-width="3"></path>
            </g>
        </g>
    </g>
</svg>